<?xml version="1.0" standalone="no"?>
<!DOCTYPE svg PUBLIC "-//W3C//DTD SVG 20010904//EN"
 "http://www.w3.org/TR/2001/REC-SVG-20010904/DTD/svg10.dtd">
<svg version="1.0" xmlns="http://www.w3.org/2000/svg"
 width="320.000000pt" height="320.000000pt" viewBox="0 0 320.000000 320.000000"
 preserveAspectRatio="xMidYMid meet">
<metadata>
Created by potrace 1.11, written by Peter Selinger 2001-2013
</metadata>
<g transform="translate(0.000000,320.000000) scale(0.100000,-0.100000)"
fill="#000000" stroke="none">
<path d="M1485 2629 c-118 -14 -212 -42 -306 -89 -167 -85 -322 -247 -391
-407 l-23 -53 -60 5 c-33 3 -69 7 -80 9 -11 2 -42 7 -68 10 -27 4 -57 9 -67
11 -9 2 -35 6 -56 9 -39 6 -129 22 -181 31 -16 3 -41 8 -58 10 -16 3 -55 11
-86 19 l-55 13 -27 -38 -27 -38 70 -109 70 -109 0 -297 0 -296 -63 -98 c-35
-53 -67 -102 -70 -108 -3 -6 5 -27 19 -47 19 -29 30 -36 47 -32 12 3 34 7 49
10 62 11 85 16 133 26 28 5 66 12 85 15 19 3 58 9 85 14 28 5 68 12 90 15 23
3 50 7 60 9 11 2 47 7 80 11 32 4 66 8 75 10 14 2 57 7 172 20 42 5 51 2 77
-22 104 -98 248 -176 385 -207 174 -41 305 -37 472 15 115 35 238 106 320 185
40 38 49 40 139 30 75 -9 290 -36 315 -40 14 -3 61 -10 105 -16 44 -7 89 -14
100 -16 11 -2 47 -9 80 -15 33 -6 92 -17 130 -24 132 -27 123 -27 150 12 l24
37 -21 35 c-12 20 -43 68 -70 108 l-48 72 0 298 0 298 55 85 c30 47 61 94 69
104 16 20 13 30 -21 83 -12 18 -19 20 -45 12 -17 -5 -47 -11 -67 -14 -39 -6
-57 -9 -136 -25 -27 -5 -66 -12 -85 -15 -19 -3 -42 -8 -50 -10 -8 -2 -35 -6
-60 -9 -25 -3 -54 -8 -65 -10 -11 -2 -42 -7 -70 -10 -27 -4 -63 -9 -80 -11
-16 -3 -51 -7 -76 -9 -44 -5 -46 -4 -57 28 -21 58 -107 193 -158 246 -148 157
-348 258 -544 276 -111 10 -123 10 -185 3z"/>
<path d="M797 976 c-6 -15 31 -56 50 -56 25 0 21 30 -6 50 -34 24 -37 24 -44
6z"/>
<path d="M2167 973 c-4 -3 4 -20 16 -37 43 -57 41 -61 -10 -24 -46 33 -52 35
-66 21 -14 -14 -11 -22 30 -84 43 -64 60 -79 76 -63 3 4 -8 27 -26 53 l-31 46
44 -33 c46 -34 57 -37 78 -23 11 6 3 24 -34 80 -44 66 -61 81 -77 64z"/>
<path d="M2287 958 c-18 -19 -17 -48 1 -48 16 0 54 48 47 59 -9 16 -28 12 -48
-11z"/>
<path d="M945 933 c-71 -37 -80 -53 -47 -79 22 -18 24 -24 14 -37 -10 -12 -10
-16 3 -21 26 -10 80 27 68 47 -3 4 7 26 22 47 23 33 25 42 15 55 -16 19 -15
19 -75 -12z m24 -35 c-16 -30 -32 -40 -41 -25 -4 6 4 18 20 28 35 23 35 23 21
-3z"/>
<path d="M1094 934 c3 -9 6 -18 6 -20 0 -2 6 -4 14 -4 9 0 12 7 9 20 -3 11
-12 20 -20 20 -10 0 -13 -6 -9 -16z"/>
<path d="M1047 883 c-8 -16 -26 -50 -41 -78 l-26 -50 41 -20 c34 -17 41 -17
49 -5 6 10 2 19 -15 30 -31 20 -19 44 18 34 21 -5 27 -2 27 9 0 9 -7 20 -16
25 -23 13 -8 33 20 26 38 -9 41 22 4 41 -41 20 -44 20 -61 -12z"/>
<path d="M1992 865 c-29 -37 -12 -102 38 -142 38 -31 100 2 100 52 0 30 -26
85 -49 102 -27 21 -68 15 -89 -12z m83 -51 c18 -38 14 -64 -8 -64 -21 0 -37
24 -44 64 -5 31 -3 36 15 36 13 0 25 -12 37 -36z"/>
<path d="M1149 844 c-43 -115 -51 -146 -38 -155 10 -6 19 2 31 31 9 22 19 40
21 40 3 0 2 -20 -1 -45 -4 -40 -2 -45 15 -45 13 0 25 11 33 30 7 16 19 35 28
42 14 11 15 10 8 -7 -27 -69 -29 -77 -15 -86 8 -4 17 -5 20 -1 11 13 58 155
54 162 -3 4 -14 10 -26 13 -17 5 -27 -4 -51 -44 -17 -27 -32 -49 -34 -49 -2 0
5 80 9 103 1 5 -8 15 -20 24 -21 14 -23 14 -34 -13z"/>
<path d="M1918 842 c-23 -4 -23 -2 9 -94 20 -58 31 -78 45 -78 24 0 23 11 -10
100 -21 59 -31 75 -44 72z"/>
<path d="M1523 815 c-9 -25 2 -27 27 -5 l23 20 -22 0 c-12 0 -24 -7 -28 -15z"/>
<path d="M1833 817 c-32 -7 -43 -15 -43 -29 0 -12 6 -18 16 -16 17 3 23 -9 44
-89 8 -32 16 -43 30 -43 24 0 24 -3 3 78 -14 51 -15 66 -5 69 13 5 17 44 5 42
-5 -1 -27 -6 -50 -12z"/>
<path d="M1317 723 c-9 -48 -15 -89 -13 -91 3 -2 23 -6 45 -9 33 -5 41 -3 41
10 0 9 -11 19 -24 23 -17 4 -22 11 -19 25 4 14 11 17 29 13 20 -5 24 -2 24 15
0 15 -5 21 -17 19 -12 -2 -19 4 -21 18 -3 18 1 20 27 16 24 -3 29 -1 27 14 -1
9 -11 19 -21 20 -10 2 -29 5 -41 8 -20 5 -23 0 -37 -81z"/>
<path d="M1738 794 c-4 -4 9 -79 21 -121 1 -2 1 -14 1 -28 0 -19 5 -25 21 -25
19 0 21 4 16 48 -7 53 -15 101 -22 120 -4 12 -27 16 -37 6z"/>
<path d="M1493 776 c-6 -9 -8 -24 -14 -126 l-3 -45 48 -3 c42 -3 47 -1 44 15
-2 10 -12 18 -23 18 -13 0 -20 7 -20 20 0 11 7 20 15 20 15 0 30 13 30 28 0 4
-12 7 -26 7 -19 0 -25 4 -22 18 3 11 12 16 26 15 16 -2 22 3 22 16 0 14 -9 20
-36 23 -19 2 -38 0 -41 -6z"/>
<path d="M1613 783 c-20 -4 -21 -8 -16 -76 3 -40 6 -80 6 -90 1 -15 8 -18 37
-14 19 3 42 8 50 11 19 8 40 60 35 84 -6 29 -23 70 -32 75 -15 8 -58 14 -80
10z m63 -62 c14 -28 4 -75 -18 -79 -10 -2 -15 6 -16 25 -1 15 -4 41 -6 56 -4
35 22 34 40 -2z"/>
</g>
</svg>
